<svg xmlns="http://www.w3.org/2000/svg" width="21.9" height="24" viewBox="0 0 21.9 24">
  <g id="Group_11609" data-name="Group 11609" transform="translate(-2950 24452.5)">
    <path id="users-svgrepo-com_3_" data-name="users-svgrepo-com (3)" d="M16.037,15.224,13.214,14a.572.572,0,0,1-.2-.223h1.885a3.34,3.34,0,0,0,1.433-.194.858.858,0,0,0,.359-1.28,9.566,9.566,0,0,1-1.835-4.8c0-.035-.115-3.49-3.527-3.518a4.059,4.059,0,0,0-1.389.246,2.4,2.4,0,0,0-.43-.71A3.634,3.634,0,0,0,6.644,2.5,3.637,3.637,0,0,0,3.782,3.52a2.59,2.59,0,0,0-.6,1.885V6.941a1.152,1.152,0,0,0-.289.758V8.855a1.149,1.149,0,0,0,.432.9,6.062,6.062,0,0,0,1.012,2.09V12.8a.763.763,0,0,1-.4.67L1.358,14.875A2.606,2.606,0,0,0,0,17.163v1.224H17.331V17.319A2.33,2.33,0,0,0,16.037,15.224ZM12.71,17.809H.578v-.646a2.027,2.027,0,0,1,1.057-1.781l2.577-1.406a1.341,1.341,0,0,0,.7-1.178V11.638l-.067-.08a5.453,5.453,0,0,1-.985-2.041L3.832,9.4l-.1-.064a.576.576,0,0,1-.267-.484V7.7a.57.57,0,0,1,.194-.426l.1-.086v-1.8l0-.038A2.006,2.006,0,0,1,4.216,3.9a3.1,3.1,0,0,1,2.428-.823,3.11,3.11,0,0,1,2.422.817,1.877,1.877,0,0,1,.418.828c0,.02.009.04.013.06s.008.041.012.061.007.044.01.065,0,.031.006.046c0,.036.008.07.01.1a.065.065,0,0,1,0,.008c0,.031,0,.061,0,.088,0,.005,0,.01,0,.015,0,.024,0,.047,0,.067v.009c0,.068-.006.108-.006.109l0,1.836.1.086a.569.569,0,0,1,.194.426V8.855A.574.574,0,0,1,9.41,9.4l-.144.044-.046.143a6.047,6.047,0,0,1-.819,1.65,3.8,3.8,0,0,1-.242.312l-.072.082v1.192a1.361,1.361,0,0,0,.018.215c0,.015.006.029.009.044a1.355,1.355,0,0,0,.045.17l.014.038a1.343,1.343,0,0,0,.079.175l.01.019a1.319,1.319,0,0,0,.146.209l.066.081h.011a1.345,1.345,0,0,0,.342.247l2.759,1.38a2.016,2.016,0,0,1,1.121,1.814Zm4.044,0H13.287v-.59a2.592,2.592,0,0,0-1.44-2.331L9.866,13.9a.5.5,0,0,0-.458-.7h-.64a.736.736,0,0,1-.033-.074.631.631,0,0,1-.069-.3v-.977c.066-.081.136-.173.208-.275A6.611,6.611,0,0,0,9.727,9.9,1.146,1.146,0,0,0,10.4,8.855V7.7a1.152,1.152,0,0,0-.289-.758V5.4a2.542,2.542,0,0,0-.024-.618,3.457,3.457,0,0,1,1.239-.225,2.937,2.937,0,0,1,2.949,2.952,10.147,10.147,0,0,0,1.94,5.122.28.28,0,0,1,.04.239.27.27,0,0,1-.155.178,2.84,2.84,0,0,1-1.177.148H12.934a.532.532,0,0,0-.478.767,1.206,1.206,0,0,0,.513.557l2.815,1.22a1.755,1.755,0,0,1,.969,1.575Z" transform="translate(2950 -24446.887)" fill="#fff"/>
    <g id="Group_11603" data-name="Group 11603" transform="translate(2961.844 -24452.5)">
      <g id="Group_11601" data-name="Group 11601" transform="translate(2.514 2.511)">
        <g id="Group_3923" data-name="Group 3923">
          <path id="Path_1964" data-name="Path 1964" d="M198.514,328a2.514,2.514,0,1,0,2.514,2.514A2.514,2.514,0,0,0,198.514,328Zm0,4.022a1.508,1.508,0,1,1,1.508-1.508A1.508,1.508,0,0,1,198.514,332.022Z" transform="translate(-196 -328)" fill="#fff"/>
        </g>
      </g>
      <g id="Group_11602" data-name="Group 11602">
        <g id="Group_3925" data-name="Group 3925">
          <path id="Path_1965" data-name="Path 1965" d="M165.553,291.52h-.8l-.025-.062.563-.563a.5.5,0,0,0,0-.711l-1.422-1.422a.517.517,0,0,0-.711,0l-.563.563-.062-.025v-.8a.5.5,0,0,0-.5-.5h-2.011a.5.5,0,0,0-.5.5v.8l-.062.025-.563-.563a.5.5,0,0,0-.711,0l-1.422,1.422a.5.5,0,0,0,0,.711l.563.563-.025.062h-.8a.5.5,0,0,0-.5.5v2.011a.5.5,0,0,0,.5.5h.8l.025.062-.563.563a.5.5,0,0,0,0,.711l1.422,1.422a.517.517,0,0,0,.711,0l.563-.563.062.025v.8a.5.5,0,0,0,.5.5h2.011a.5.5,0,0,0,.5-.5v-.8l.062-.025.563.563a.5.5,0,0,0,.711,0l1.422-1.422a.5.5,0,0,0,0-.711l-.563-.563.025-.062h.8a.5.5,0,0,0,.5-.5v-2.011A.5.5,0,0,0,165.553,291.52Zm-.5,2.011H164.4a.5.5,0,0,0-.482.36,2.981,2.981,0,0,1-.236.573.5.5,0,0,0,.086.6l.459.459-.711.711-.459-.459a.5.5,0,0,0-.6-.086,2.98,2.98,0,0,1-.573.236.5.5,0,0,0-.359.482v.651h-1.005V296.4a.5.5,0,0,0-.359-.482,2.98,2.98,0,0,1-.573-.236.5.5,0,0,0-.6.086l-.459.459-.71-.711.459-.459a.5.5,0,0,0,.086-.6,2.983,2.983,0,0,1-.236-.573.5.5,0,0,0-.482-.359h-.651v-1.006h.651a.5.5,0,0,0,.482-.359,2.983,2.983,0,0,1,.236-.573.5.5,0,0,0-.086-.6l-.459-.459.711-.711.459.459a.5.5,0,0,0,.6.087,2.976,2.976,0,0,1,.573-.236.5.5,0,0,0,.359-.481v-.651h1.006v.651a.5.5,0,0,0,.359.482,2.979,2.979,0,0,1,.573.236.5.5,0,0,0,.6-.086l.459-.459.711.711-.459.459a.5.5,0,0,0-.086.6,2.981,2.981,0,0,1,.236.573.5.5,0,0,0,.482.359h.65Z" transform="translate(-156 -288)" fill="#fff"/>
        </g>
      </g>
    </g>
  </g>
</svg>
